<?xml version="1.0" encoding="UTF-8"?>
<svg width="68px" height="61px" viewBox="0 0 68 61" xmlns="http://www.w3.org/2000/svg" xmlns:xlink="http://www.w3.org/1999/xlink" version="1.1">
 <!-- Generated by Pixelmator Pro 2.0.8 -->
 <g id="cloudy-day-1">
  <g id="group">
   <g id="group-1">
    <g id="group-2">
     <g id="group-3">
      <path id="Path" d="M28.333 49.651 L28.333 53.907" fill="none" stroke="#ffa500" stroke-width="2.419" stroke-opacity="1" stroke-linejoin="round" stroke-linecap="round"/>
     </g>
     <g id="group-4">
      <path id="Path-1" d="M19.318 45.912 L16.313 48.921" fill="none" stroke="#ffa500" stroke-width="2.835" stroke-opacity="1" stroke-linejoin="round" stroke-linecap="round"/>
     </g>
     <g id="group-5">
      <path id="Path-2" d="M15.583 36.884 L11.333 36.884" fill="none" stroke="#ffa500" stroke-width="2.417" stroke-opacity="1" stroke-linejoin="round" stroke-linecap="round"/>
     </g>
     <g id="group-6">
      <path id="Path-3" d="M19.318 27.856 L16.313 24.846" fill="none" stroke="#ffa500" stroke-width="2.835" stroke-opacity="1" stroke-linejoin="round" stroke-linecap="round"/>
     </g>
     <g id="group-7">
      <path id="Path-4" d="M28.333 24.116 L28.333 19.86" fill="none" stroke="#ffa500" stroke-width="2.419" stroke-opacity="1" stroke-linejoin="round" stroke-linecap="round"/>
     </g>
     <g id="group-8">
      <path id="Path-5" d="M37.349 27.856 L40.354 24.846" fill="none" stroke="#ffa500" stroke-width="2.835" stroke-opacity="1" stroke-linejoin="round" stroke-linecap="round"/>
     </g>
     <g id="group-9">
      <path id="Path-6" d="M41.083 36.884 L45.333 36.884" fill="none" stroke="#ffa500" stroke-width="2.417" stroke-opacity="1" stroke-linejoin="round" stroke-linecap="round"/>
     </g>
     <g id="group-10">
      <path id="Path-7" d="M37.349 45.912 L40.354 48.921" fill="none" stroke="#ffa500" stroke-width="2.835" stroke-opacity="1" stroke-linejoin="round" stroke-linecap="round"/>
     </g>
    </g>
    <path id="Path-8" d="M35.417 36.884 C35.417 40.801 32.245 43.977 28.333 43.977 24.421 43.977 21.25 40.801 21.25 36.884 21.25 32.966 24.421 29.791 28.333 29.791 32.245 29.791 35.417 32.966 35.417 36.884 Z" fill="#ffa500" fill-opacity="1" stroke="#ffa500" stroke-width="2.835" stroke-opacity="1" stroke-linejoin="round" stroke-linecap="round"/>
   </g>
   <g id="group-11">
    <path id="Path-9" d="M67.575 48.8 C67.575 42.274 62.333 37.167 55.958 37.167 54.542 37.167 53.267 37.451 51.992 37.877 51.567 33.053 47.6 29.081 42.642 29.081 37.4 29.081 33.15 33.337 33.15 38.586 33.15 39.721 33.433 40.856 33.717 41.849 33.292 41.707 32.725 41.707 32.3 41.707 27.058 41.707 22.808 45.963 22.808 51.212 22.808 56.319 26.917 60.574 32.017 60.716 L56.383 60.716 C62.617 60.007 67.575 55.042 67.575 48.8 Z" fill="#c6deff" fill-opacity="1" stroke="#ffffff" stroke-width="1.701" stroke-opacity="1" stroke-linejoin="round" stroke-linecap="round"/>
   </g>
  </g>
 </g>
</svg>
