<?xml version="1.0" encoding="UTF-8"?>
<svg width="57px" height="43px" viewBox="0 0 57 43" xmlns="http://www.w3.org/2000/svg" xmlns:xlink="http://www.w3.org/1999/xlink" version="1.1">
 <!-- Generated by Pixelmator Pro 2.0.8 -->
 <g id="cloudy-night-1">
  <g id="group">
   <g id="group-1">
    <path id="Path" d="M81.619 55.009 C81.619 45.471 73.948 38.007 64.617 38.007 62.544 38.007 60.678 38.422 58.812 39.044 58.19 31.994 52.384 26.189 45.127 26.189 37.456 26.189 31.236 32.409 31.236 40.081 31.236 41.739 31.65 43.398 32.065 44.849 31.443 44.642 30.614 44.642 29.992 44.642 22.32 44.642 16.1 50.862 16.1 58.534 16.1 65.998 22.113 72.218 29.577 72.426 L65.239 72.426 C74.362 71.389 81.619 64.132 81.619 55.009 Z" fill="#c6deff" fill-opacity="1" stroke="#ffffff" stroke-width="2.488" stroke-opacity="1" stroke-linejoin="round" stroke-linecap="round"/>
   </g>
  </g>
 </g>
</svg>
